<?xml version="1.0" encoding="iso-8859-1"?>
<!-- Generator: Adobe Illustrator 18.0.0, SVG Export Plug-In . SVG Version: 6.00 Build 0)  -->
<!DOCTYPE svg PUBLIC "-//W3C//DTD SVG 1.1//EN" "http://www.w3.org/Graphics/SVG/1.1/DTD/svg11.dtd">
<svg version="1.1" id="Capa_1" xmlns="http://www.w3.org/2000/svg" xmlns:xlink="http://www.w3.org/1999/xlink" x="0px" y="0px"
	 viewBox="0 0 480.416 480.416" style="enable-background:new 0 0 480.416 480.416;" xml:space="preserve">
<g>
	<path d="M465.417,225.21c-15.164-0.001-27.501-12.335-27.502-27.488c0.005-15.354-5.974-29.795-16.838-40.666
		c-4.924-4.924-10.579-8.846-16.754-11.666c1.958-21.814-8.769-43.765-28.486-55.179c-6.349-3.678-10.89-9.601-12.783-16.67
		c-1.898-7.101-0.924-14.509,2.742-20.861c0.001-0.002,0.002-0.004,0.003-0.005c0,0,0-0.001,0.001-0.001
		c4.143-7.174,1.687-16.348-5.487-20.491c-7.173-4.142-16.347-1.687-20.491,5.485c-3.676,6.362-9.607,10.913-16.702,12.813
		c-7.094,1.9-14.501,0.924-20.872-2.756c-13.314-7.674-28.808-9.71-43.641-5.732c-6.726,1.81-12.945,4.748-18.456,8.67
		c-17.912-12.593-42.287-14.274-62.041-2.906c-6.347,3.658-13.742,4.626-20.812,2.732c-7.106-1.909-13.042-6.462-16.713-12.821v0
		c-4.142-7.174-13.316-9.632-20.49-5.49s-9.632,13.316-5.49,20.49c0,0,0,0,0,0c3.673,6.361,4.649,13.772,2.75,20.866
		c-1.899,7.094-6.448,13.022-12.808,16.694c-13.311,7.686-22.825,20.088-26.787,34.915c-1.802,6.725-2.371,13.584-1.727,20.339
		c-19.869,9.208-33.515,29.473-33.542,52.257c-0.012,7.343-2.871,14.239-8.041,19.408c-5.208,5.196-12.116,8.058-19.453,8.059
		C6.714,225.209-0.001,231.925,0,240.209s6.717,14.999,15.001,14.999c7.342,0,14.245,2.859,19.438,8.051
		c5.194,5.194,8.054,12.1,8.053,19.453c0.006,15.358,5.985,29.795,16.85,40.667c4.93,4.919,10.586,8.835,16.743,11.648
		c-1.958,21.809,8.77,43.755,28.489,55.17c6.35,3.679,10.89,9.601,12.784,16.674c1.898,7.092,0.932,14.491-2.72,20.837
		c-0.008,0.014-0.017,0.028-0.024,0.042c-4.139,7.175-1.68,16.346,5.494,20.487c2.362,1.363,4.94,2.011,7.484,2.011
		c5.183,0,10.226-2.69,13.004-7.501c0.002-0.004,0.005-0.008,0.007-0.013c3.668-6.354,9.594-10.9,16.685-12.8
		c7.093-1.902,14.506-0.926,20.861,2.739c13.3,7.688,28.797,9.729,43.647,5.746c6.73-1.811,12.951-4.749,18.465-8.67
		c17.909,12.591,42.279,14.272,62.021,2.913c6.357-3.655,13.765-4.625,20.828-2.737c7.104,1.913,13.036,6.463,16.704,12.812
		c0.002,0.003,0.003,0.006,0.005,0.009c2.778,4.813,7.82,7.502,13.004,7.502c2.544,0,5.124-0.648,7.486-2.012
		c7.174-4.142,9.632-13.316,5.49-20.49c-3.672-6.361-4.647-13.771-2.746-20.867c1.901-7.096,6.451-13.026,12.812-16.699
		c13.292-7.674,22.807-20.067,26.796-34.917c1.797-6.727,2.363-13.584,1.721-20.334c19.859-9.213,33.504-29.48,33.54-52.271
		c0.006-7.321,2.865-14.21,8.043-19.39c5.2-5.194,12.109-8.056,19.455-8.057c8.284-0.001,14.998-6.717,14.998-15
		S473.701,225.211,465.417,225.21z M317.74,253.198c10.579,6.097,19.424,14.954,25.578,25.613l18.123,31.39l-36.25-0.003
		c-0.004,0-0.005,0-0.009,0c-12.293,0-24.386-3.235-34.966-9.354c-4.643-2.685-10.366-2.688-15.01-0.005
		c-4.645,2.681-7.504,7.638-7.5,13.001c0.009,12.227-3.237,24.318-9.389,34.971l-18.112,31.384l-18.122-31.389
		c-6.154-10.659-9.402-22.747-9.392-34.957c0.004-5.363-2.855-10.32-7.5-13.002c-2.321-1.34-4.911-2.01-7.5-2.01
		c-2.593,0-5.187,0.672-7.509,2.015c-10.576,6.116-22.661,9.348-34.956,9.348c-0.004,0-0.011,0-0.015,0l-36.238,0l18.12-31.386
		c6.146-10.65,14.991-19.506,25.579-25.609c4.646-2.678,7.509-7.633,7.509-12.997c0-5.363-2.864-10.317-7.51-12.996
		c-10.579-6.096-19.423-14.953-25.578-25.612l-18.119-31.382l36.237,0c0.004,0,0.005,0,0.009,0c12.293,0,24.386,3.235,34.966,9.354
		c4.642,2.684,10.365,2.687,15.01,0.005c4.645-2.681,7.504-7.638,7.5-13.001c-0.009-12.227,3.237-24.318,9.387-34.967l18.125-31.389
		l18.12,31.385c6.154,10.659,9.402,22.747,9.393,34.957c-0.004,5.363,2.855,10.32,7.5,13.002c4.644,2.681,10.366,2.679,15.009-0.005
		c10.57-6.113,22.653-9.343,34.95-9.343c0.004,0,0.009,0,0.013,0l36.243-0.002l-18.126,31.39
		c-6.146,10.65-14.988,19.504-25.57,25.604c-4.646,2.678-7.509,7.633-7.509,12.996C310.23,245.566,313.094,250.52,317.74,253.198z
		 M287.254,73.711c13.298,7.683,28.793,9.725,43.63,5.75c0.862-0.231,1.715-0.48,2.561-0.749c0.189,0.863,0.399,1.725,0.628,2.584
		c3.964,14.802,13.455,27.188,26.73,34.878c8.74,5.059,13.803,14.419,13.786,24.038l-49.395,0.003c-0.006,0-0.013,0-0.019,0
		c-10.172,0-20.25,1.552-29.869,4.558c-2.208-9.84-5.906-19.351-10.998-28.169l-24.703-42.789c2.102-1.228,4.371-2.197,6.788-2.848
		C273.479,69.067,280.892,70.043,287.254,73.711z M106.741,132.901c1.895-7.087,6.443-13.015,12.808-16.69
		c13.3-7.679,22.813-20.078,26.786-34.914c0.23-0.858,0.439-1.719,0.629-2.581c0.846,0.269,1.7,0.519,2.563,0.75
		c14.812,3.969,30.282,1.939,43.556-5.709c8.753-5.038,19.386-4.742,27.717,0.083l-24.695,42.766
		c-5.091,8.816-8.79,18.33-10.996,28.176c-9.628-3.011-19.709-4.565-29.885-4.565c-0.003,0-0.01,0-0.013,0l-49.402-0.001
		C105.795,137.775,106.092,135.322,106.741,132.901z M55.651,242.046c-0.629-0.629-1.269-1.241-1.922-1.837
		c0.652-0.595,1.293-1.206,1.922-1.833c10.835-10.834,16.816-25.248,16.84-40.593c0.012-10.091,5.575-19.147,13.931-23.948
		l24.69,42.764c5.091,8.818,11.479,16.776,18.896,23.608c-7.422,6.834-13.811,14.793-18.897,23.609l-24.705,42.792
		c-2.116-1.206-4.09-2.685-5.86-4.451c-5.19-5.194-8.051-12.104-8.054-19.449C72.493,267.347,66.512,252.906,55.651,242.046z
		 M193.149,406.694c-8.859-5.111-18.689-7.722-28.649-7.722c-4.995,0-10.024,0.657-14.978,1.984
		c-0.859,0.23-1.712,0.479-2.554,0.747c-0.19-0.865-0.4-1.729-0.631-2.59c-3.963-14.802-13.454-27.188-26.729-34.878
		c-8.731-5.054-13.792-14.395-13.773-24.037l49.372,0.001c0.008,0,0.015,0,0.022,0c10.173,0,20.253-1.553,29.876-4.562
		c2.208,9.839,5.906,19.35,10.997,28.168l24.705,42.792c-2.105,1.228-4.377,2.198-6.798,2.85
		C206.919,411.349,199.515,410.374,193.149,406.694z M373.68,347.499c-1.907,7.097-6.459,13.028-12.818,16.7
		c-13.3,7.679-22.814,20.078-26.79,34.915c-0.23,0.86-0.441,1.724-0.631,2.588c-0.846-0.269-1.699-0.52-2.561-0.752
		c-14.807-3.957-30.276-1.93-43.561,5.708c-8.749,5.035-19.376,4.739-27.703-0.081l24.682-42.768
		c5.091-8.816,8.789-18.33,10.996-28.177c9.628,3.012,19.708,4.565,29.884,4.565c0.003,0,0.01,0,0.013,0l49.415,0.004
		C374.619,342.638,374.324,345.086,373.68,347.499z M424.753,242.05c-10.843,10.847-16.821,25.259-16.834,40.57
		c-0.016,10.093-5.58,19.153-13.929,23.958l-24.692-42.767c-5.091-8.819-11.479-16.777-18.896-23.609
		c7.418-6.832,13.803-14.788,18.889-23.602l24.71-42.792c2.117,1.208,4.091,2.689,5.86,4.458c5.196,5.199,8.057,12.105,8.054,19.452
		c0.001,16.805,7.25,31.949,18.787,42.471C426.041,240.792,425.39,241.413,424.753,242.05z"/>
	<path d="M254.983,185.052c-14.732-3.946-30.118-1.921-43.327,5.704c-13.208,7.626-22.656,19.939-26.604,34.671
		c-3.947,14.732-1.921,30.119,5.705,43.327c7.625,13.208,19.938,22.656,34.67,26.604c4.919,1.318,9.911,1.97,14.871,1.97
		c9.894,0,19.658-2.595,28.456-7.674c27.266-15.742,36.642-50.731,20.9-77.998C282.028,198.447,269.715,188.999,254.983,185.052z
		 M266.38,247.218c-1.874,6.992-6.357,12.835-12.626,16.455c-12.939,7.471-29.546,3.021-37.017-9.919
		c-3.619-6.269-4.581-13.571-2.707-20.563c1.873-6.992,6.357-12.835,12.626-16.455c4.176-2.411,8.81-3.642,13.505-3.642
		c2.354,0,4.723,0.31,7.058,0.935c6.991,1.874,12.835,6.357,16.454,12.626h0C267.292,232.924,268.253,240.227,266.38,247.218z"/>
</g>
<g>
</g>
<g>
</g>
<g>
</g>
<g>
</g>
<g>
</g>
<g>
</g>
<g>
</g>
<g>
</g>
<g>
</g>
<g>
</g>
<g>
</g>
<g>
</g>
<g>
</g>
<g>
</g>
<g>
</g>
</svg>
